<svg xmlns="http://www.w3.org/2000/svg" fill="none" viewBox="0 0 128 128">
  <defs>
    <mask id="a">
      <circle fill="#fff" cx="64" cy="64" r="64" />
      <circle fill="#000" cx="64" cy="64" r="56"/>
    </mask>
  </defs>
  <circle mask="url(#a)" fill="currentColor" cx="64" cy="64" r="64" />
  <path fill="currentColor" fill-rule="evenodd" d="m106.278 103.375-3.615 3.285c-11.197 10.176-26.108 15.609-41.35 14.892l-.834-.039-.563-.618a148.929 148.929 0 0 1-21.687-30.92h-.002l-.276-.53-.018-.034a148.36 148.36 0 0 1-1.193-2.336 151.484 151.484 0 0 1-1.905-3.957l3.664-1.7a144.754 144.754 0 0 0 2.722 5.561 147.66 147.66 0 0 0 11.2 5.196c16.04 6.645 32.585 10.211 48.978 10.973l4.879.227Zm-61.692-10.24a144.733 144.733 0 0 0 17.75 24.415c12.192.381 24.118-3.462 33.756-10.694-15.169-1.231-30.405-4.814-45.217-10.95a152.33 152.33 0 0 1-6.289-2.772ZM106.682 32.102c-1.231 15.171-4.814 30.41-10.95 45.224a152.133 152.133 0 0 1-2.773 6.289 144.698 144.698 0 0 0 24.414-17.748 53.164 53.164 0 0 0-4.05-22.104 53.491 53.491 0 0 0-6.641-11.661Zm-.198-6.568a57.307 57.307 0 0 1 10.571 16.683 57.196 57.196 0 0 1 4.32 24.674l-.04.834-.617.562a148.954 148.954 0 0 1-31.482 21.981l-5.693 2.969 2.968-5.693A147.568 147.568 0 0 0 92 75.78c6.645-16.043 10.211-32.588 10.973-48.981l.227-4.874 3.284 3.608ZM67.547 6.863l.563.618a148.927 148.927 0 0 1 21.687 30.92h.002l.27.517.351.678.067.13-2.863 1.473-.255.49-.348-.18-.126.065-.09-.177a147.658 147.658 0 0 0-11.2-5.196c-16.04-6.644-32.585-10.21-48.978-10.973l-4.879-.227 3.615-3.285C36.56 11.54 51.47 6.108 66.712 6.824l.835.04Zm15.892 28.379A144.75 144.75 0 0 0 65.69 10.826c-12.192-.38-24.118 3.462-33.756 10.694 15.169 1.231 30.405 4.814 45.217 10.95 2.127.88 4.224 1.805 6.288 2.772ZM10.651 62.511c-.381 12.192 3.462 24.118 10.694 33.756 1.231-15.169 4.814-30.405 10.95-45.217a152.267 152.267 0 0 1 2.772-6.288A144.754 144.754 0 0 0 10.65 62.51Zm27.575-24.107A148.93 148.93 0 0 0 7.306 60.09l-.618.563-.039.835c-.716 15.241 4.716 30.152 14.892 41.349l3.285 3.615.227-4.879c.762-16.393 4.328-32.937 10.973-48.978a147.659 147.659 0 0 1 5.196-11.2 145.734 145.734 0 0 1 6.352-3.086l-1.677-3.674a155.249 155.249 0 0 0-4.026 1.91 150.58 150.58 0 0 0-3.081 1.562l-.074.039-.49.257Z" clip-rule="evenodd"/>
  <path fill="currentColor" fill-rule="evenodd" d="m29.663 57.457 1.926 6.125a147.58 147.58 0 0 0 4.437 12.199c6.645 16.042 15.822 30.263 26.875 42.394l3.287 3.606-4.874-.229a57.293 57.293 0 0 1-19.272-4.322 57.197 57.197 0 0 1-20.5-14.392l-.563-.618.04-.834a148.95 148.95 0 0 1 6.717-37.804l1.927-6.125Zm-4.569 43.276a53.18 53.18 0 0 0 18.494 12.766 53.483 53.483 0 0 0 12.942 3.549c-9.858-11.598-18.1-24.907-24.236-39.722a152.21 152.21 0 0 1-2.486-6.406 144.748 144.748 0 0 0-4.713 29.813ZM121.606 62.013l-.229 4.874a57.293 57.293 0 0 1-4.322 19.272 57.199 57.199 0 0 1-14.392 20.501l-.618.561-.834-.038a148.978 148.978 0 0 1-37.804-6.718l-6.125-1.927 6.125-1.926c4.091-1.287 8.16-2.764 12.199-4.437 16.042-6.645 30.263-15.822 42.393-26.876l3.607-3.286Zm-4.733 9.658c-11.598 9.858-24.907 18.1-39.722 24.236-2.127.88-4.263 1.71-6.406 2.486a144.659 144.659 0 0 0 29.813 4.713 53.159 53.159 0 0 0 12.765-18.493 53.44 53.44 0 0 0 3.55-12.942ZM71.496 11.329c9.858 11.598 18.1 24.906 24.236 39.72.88 2.128 1.71 4.264 2.486 6.407a144.653 144.653 0 0 0 4.713-29.813 53.168 53.168 0 0 0-18.493-12.765 53.475 53.475 0 0 0-12.942-3.55Zm-4.784-4.505a57.314 57.314 0 0 1 19.272 4.322 57.202 57.202 0 0 1 20.501 14.392l.561.618-.038.834a148.979 148.979 0 0 1-6.718 37.804l-1.927 6.125-1.926-6.125A147.596 147.596 0 0 0 92 52.596c-6.645-16.043-15.822-30.263-26.876-42.394l-3.286-3.607 4.874.23ZM70.744 29.838l-6.125 1.926a147.628 147.628 0 0 0-12.199 4.437c-16.042 6.645-30.263 15.822-42.394 26.876L6.42 66.363l.229-4.874a57.314 57.314 0 0 1 4.322-19.272 57.2 57.2 0 0 1 14.392-20.5l.618-.562.834.038a148.94 148.94 0 0 1 37.804 6.718l6.125 1.927ZM27.468 25.27a53.174 53.174 0 0 0-12.766 18.493 53.477 53.477 0 0 0-3.549 12.942c11.598-9.858 24.907-18.1 39.722-24.236 2.127-.88 4.263-1.71 6.406-2.486a144.748 144.748 0 0 0-29.813-4.713Z" clip-rule="evenodd"/>
</svg>